<?xml version="1.0" standalone="no"?>
<!DOCTYPE svg PUBLIC "-//W3C//DTD SVG 20010904//EN"
 "http://www.w3.org/TR/2001/REC-SVG-20010904/DTD/svg10.dtd">
<svg version="1.0" xmlns="http://www.w3.org/2000/svg"
 width="683.000000pt" height="683.000000pt" viewBox="0 0 683.000000 683.000000"
 preserveAspectRatio="xMidYMid meet">

<g transform="translate(0.000000,683.000000) scale(0.100000,-0.100000)"
fill="#000000" stroke="none">
<path d="M4380 5939 c-53 -6 -73 -12 -115 -29 -11 -5 -36 -15 -55 -23 -19 -8
-56 -24 -82 -36 -26 -11 -51 -21 -54 -21 -3 0 -21 -7 -40 -15 -19 -8 -51 -22
-71 -30 -21 -9 -46 -20 -55 -25 -10 -6 -23 -10 -29 -10 -7 0 -27 -11 -46 -26
-27 -20 -33 -32 -33 -63 0 -68 54 -98 123 -67 18 7 52 23 77 34 25 11 86 36
135 57 50 20 114 48 142 61 146 66 188 61 474 -56 232 -95 302 -125 331 -141
10 -5 22 -9 28 -9 5 0 33 -11 62 -24 117 -53 152 -68 221 -96 132 -53 162 -75
205 -154 16 -29 17 -146 17 -1766 l0 -1735 -26 -40 c-60 -91 -111 -116 -263
-125 -103 -7 -111 -9 -133 -34 -29 -35 -29 -58 1 -93 l24 -28 124 2 c73 1 137
8 158 16 105 39 187 107 228 189 54 108 52 24 52 1853 0 1822 2 1743 -50 1846
-51 99 -127 153 -335 238 -71 29 -148 61 -170 71 -22 10 -71 30 -110 46 -38
15 -74 31 -79 36 -6 4 -16 8 -23 8 -7 0 -36 11 -65 24 -116 52 -148 66 -153
66 -4 0 -25 9 -48 19 -176 80 -249 96 -367 80z"/>
<path d="M3510 5593 c-33 -12 -89 -37 -160 -71 -110 -53 -167 -117 -219 -246
-9 -21 -12 -230 -11 -789 0 -555 -3 -763 -11 -773 -16 -20 -297 -20 -305 -1
-3 8 0 34 6 58 22 87 30 136 44 272 25 237 -6 500 -91 765 -21 68 -38 94 -90
143 -65 61 -132 84 -228 76 -115 -8 -202 -70 -251 -175 -24 -51 -27 -72 -31
-197 -4 -134 -16 -237 -33 -280 -56 -143 -92 -197 -195 -300 -45 -44 -145
-128 -221 -185 -76 -58 -185 -142 -241 -187 -57 -46 -105 -83 -108 -83 -3 0
-5 26 -5 58 0 45 -5 63 -20 80 -21 22 -22 22 -434 22 -407 0 -413 0 -432 -21
-18 -20 -19 -56 -22 -1138 -1 -614 0 -1125 2 -1136 3 -11 15 -30 26 -43 l21
-22 403 0 c491 0 449 -14 456 152 l5 113 46 -2 c99 -5 196 -40 309 -112 41
-26 89 -53 105 -59 69 -27 194 -32 846 -32 617 0 680 -2 720 -17 40 -16 111
-18 754 -21 391 -2 728 -1 751 3 76 11 108 73 65 126 l-19 24 -666 3 c-366 1
-666 5 -666 8 0 3 10 24 23 47 13 23 29 68 37 100 17 72 2 164 -36 233 l-26
46 60 56 c79 76 106 133 110 239 4 77 2 86 -32 157 l-37 76 37 32 c61 53 100
124 114 206 16 86 5 144 -40 226 l-28 50 53 47 c35 32 61 69 79 110 55 122 31
270 -60 363 -89 92 -139 106 -380 106 -104 0 -195 4 -202 8 -10 7 -12 158 -10
768 3 700 4 761 20 791 35 63 91 108 173 138 98 37 144 70 145 107 0 33 -23
67 -53 78 -16 5 -30 10 -31 9 -1 0 -8 -3 -16 -6z m-953 -750 c36 -26 52 -51
64 -98 30 -121 39 -158 53 -220 23 -109 30 -189 30 -335 0 -188 -16 -290 -75
-471 -34 -103 -30 -135 22 -161 31 -16 78 -18 532 -18 l499 0 39 -27 c68 -49
96 -140 65 -214 -15 -36 -58 -80 -91 -95 -11 -5 -111 -11 -221 -14 -230 -6
-244 -10 -244 -80 0 -67 18 -74 205 -80 183 -6 194 -9 247 -86 53 -76 28 -187
-54 -241 -40 -27 -48 -28 -199 -33 -181 -6 -199 -13 -199 -81 0 -57 24 -69
141 -69 113 0 169 -19 212 -69 53 -64 57 -142 11 -213 -42 -65 -82 -78 -244
-78 -174 0 -209 -14 -210 -87 0 -53 35 -70 161 -75 98 -3 109 -6 143 -32 61
-46 78 -81 74 -152 -5 -76 -39 -126 -105 -155 -43 -18 -78 -19 -763 -19 -798
0 -751 -4 -861 70 -99 68 -193 103 -349 132 l-75 14 -3 462 c-3 528 0 512 -77
512 -27 0 -47 -6 -56 -17 -11 -13 -15 -129 -19 -627 l-5 -611 -295 0 -295 0 0
1025 0 1025 295 0 295 0 5 -283 5 -283 25 -19 c34 -26 62 -25 94 5 26 24 26
24 26 178 l0 153 36 43 c48 56 200 185 354 301 228 171 310 244 398 358 35 46
95 156 123 227 30 77 67 341 55 390 -12 46 10 108 49 142 21 18 47 34 59 36
38 8 90 -5 123 -30z"/>
<path d="M4351 5423 c-38 -7 -125 -67 -154 -105 -42 -55 -57 -105 -57 -184 0
-41 4 -82 9 -92 5 -9 15 -30 22 -46 19 -41 69 -89 126 -123 43 -25 57 -28 133
-28 92 1 133 16 196 72 61 55 104 145 104 219 0 48 -33 138 -68 181 -74 94
-181 130 -311 106z m161 -174 c134 -96 12 -309 -136 -238 -59 28 -81 63 -81
126 0 116 122 179 217 112z"/>
<path d="M4375 3781 c-33 -14 -45 -50 -47 -146 l-3 -89 -45 -8 c-69 -12 -131
-49 -172 -103 -47 -62 -58 -109 -58 -247 0 -98 3 -120 24 -165 37 -78 80 -104
297 -174 104 -33 200 -70 214 -81 23 -18 25 -25 25 -111 0 -88 -2 -94 -30
-128 -38 -47 -86 -59 -208 -50 -92 6 -94 7 -128 43 -21 24 -34 48 -34 65 0 40
-35 93 -62 94 -42 2 -53 -2 -77 -28 -20 -23 -22 -34 -18 -74 16 -131 108 -224
250 -254 l27 -5 0 -99 c0 -93 1 -100 26 -125 42 -41 94 -32 122 21 7 12 12 60
12 107 0 91 8 106 59 106 54 0 148 77 189 155 25 46 27 59 27 175 0 139 -8
162 -77 226 -39 36 -65 47 -273 114 -88 29 -170 61 -182 73 -21 19 -23 29 -23
130 0 127 14 159 78 177 54 15 207 13 246 -4 43 -18 76 -54 76 -83 0 -89 108
-126 146 -50 42 79 -45 236 -153 278 -15 6 -46 14 -68 18 l-40 6 -5 95 c-7
108 -13 128 -47 141 -29 11 -41 11 -68 0z"/>
</g>
</svg>
