<?xml version="1.0" standalone="no"?>
<!DOCTYPE svg PUBLIC "-//W3C//DTD SVG 20010904//EN"
 "http://www.w3.org/TR/2001/REC-SVG-20010904/DTD/svg10.dtd">
<svg version="1.0" xmlns="http://www.w3.org/2000/svg"
 width="512.000000pt" height="512.000000pt" viewBox="0 0 512.000000 512.000000"
 preserveAspectRatio="xMidYMid meet">

<g transform="translate(0.000000,512.000000) scale(0.100000,-0.100000)"
fill="#000000" stroke="none">
<path d="M392 5104 c-114 -30 -224 -137 -257 -248 -13 -43 -15 -338 -15 -2283
l0 -2234 25 -24 24 -25 231 0 232 0 29 29 c16 16 29 38 29 48 -1 10 -27 679
-59 1487 l-58 1469 -27 24 c-25 21 -36 23 -147 23 l-119 0 0 685 c0 438 4 702
10 733 13 60 60 118 114 143 35 16 67 19 214 19 192 0 226 8 239 58 11 41 5
65 -23 90 -24 21 -32 22 -207 21 -125 0 -199 -5 -235 -15z m22 -2016 c4 -62
27 -635 51 -1273 24 -638 47 -1204 50 -1257 l6 -98 -121 0 -120 0 0 1370 0
1370 64 0 64 0 6 -112z"/>
<path d="M1167 5109 c-48 -28 -51 56 65 -2074 67 -1248 111 -2131 116 -2348
l7 -349 28 -24 28 -24 298 0 298 0 27 26 c33 34 34 74 2 111 l-24 28 -246 3
-246 3 0 114 0 115 213 0 c247 0 282 7 303 55 15 38 11 59 -19 92 -20 23 -24
23 -259 23 -182 0 -240 3 -242 13 -4 12 -217 3998 -216 4050 l0 27 865 0 c476
0 865 -3 865 -7 1 -5 -20 -405 -46 -891 l-47 -882 22 -24 c49 -53 122 -36 140
32 16 60 107 1856 95 1889 -5 15 -21 33 -34 40 -33 17 -1965 18 -1993 2z"/>
<path d="M475 4813 c-64 -16 -86 -93 -40 -138 24 -25 27 -25 198 -25 159 0
177 2 199 20 50 39 37 118 -22 139 -32 11 -293 14 -335 4z"/>
<path d="M1605 4531 c-11 -5 -29 -18 -40 -30 -19 -22 -18 -32 59 -1489 42
-807 82 -1482 87 -1500 13 -39 38 -54 86 -50 25 2 42 11 55 29 20 26 19 36
-59 1505 -62 1146 -83 1484 -94 1501 -10 17 -64 48 -73 42 -1 0 -10 -4 -21 -8z"/>
<path d="M435 4495 c-32 -31 -32 -75 -1 -112 24 -28 24 -28 173 -31 165 -4
226 6 244 40 18 34 13 78 -12 104 -22 24 -26 24 -201 24 -177 0 -179 0 -203
-25z"/>
<path d="M431 4194 c-28 -36 -27 -79 4 -109 24 -25 26 -25 203 -25 172 0 179
1 199 23 28 31 34 53 22 84 -19 50 -31 52 -226 53 l-182 0 -20 -26z"/>
<path d="M2785 2860 c-151 -18 -258 -71 -370 -184 -94 -95 -145 -187 -169
-308 -23 -112 -24 -1765 -1 -1873 49 -236 244 -431 480 -480 101 -21 1237 -22
1336 -1 231 49 444 264 483 489 l7 37 200 0 c199 0 200 0 224 25 l25 24 0
1114 0 1114 -26 24 -26 24 -1051 1 c-579 1 -1079 -2 -1112 -6z m1213 -170
c245 -35 419 -270 382 -514 -26 -175 -154 -321 -324 -370 -81 -24 -1246 -24
-1327 0 -234 68 -375 313 -314 547 46 178 183 304 365 337 63 11 1141 12 1218
0z m842 -985 l0 -995 -140 0 -139 0 -4 818 c-4 905 0 853 -71 997 -19 39 -56
94 -81 123 l-47 52 241 0 241 0 0 -995z m-2277 -11 c143 -73 93 -68 797 -72
548 -2 645 -1 705 13 92 20 174 60 258 124 l68 52 -4 -638 c-3 -569 -5 -643
-20 -687 -52 -149 -162 -254 -316 -300 -79 -23 -1221 -24 -1311 -1 -156 40
-285 169 -325 325 -13 48 -15 161 -15 679 l0 621 55 -45 c31 -25 79 -57 108
-71z"/>
<path d="M3003 2323 c-30 -6 -63 -49 -63 -83 0 -16 11 -38 26 -54 l27 -26 396
0 c347 0 399 2 419 16 33 23 43 57 30 95 -20 57 -36 59 -445 58 -202 -1 -378
-4 -390 -6z"/>
<path d="M2962 1425 c-35 -16 -56 -56 -47 -92 16 -64 112 -87 160 -38 71 70
-17 172 -113 130z"/>
<path d="M2634 1196 c-88 -39 -51 -156 49 -156 96 0 122 126 33 160 -35 13
-44 12 -82 -4z"/>
<path d="M2965 970 c-29 -11 -44 -32 -51 -68 -5 -26 -1 -36 24 -62 34 -34 75
-39 121 -15 32 16 41 33 41 73 -1 60 -72 98 -135 72z"/>
<path d="M2630 737 c-72 -37 -55 -138 27 -153 62 -12 113 24 113 80 0 38 -10
55 -41 71 -34 18 -66 19 -99 2z"/>
<path d="M2938 490 c-25 -26 -29 -36 -24 -62 12 -61 70 -91 130 -68 38 14 55
38 55 75 0 80 -101 114 -161 55z"/>
</g>
</svg>
