<?xml version="1.0" standalone="no"?>
<!DOCTYPE svg PUBLIC "-//W3C//DTD SVG 20010904//EN"
 "http://www.w3.org/TR/2001/REC-SVG-20010904/DTD/svg10.dtd">
<svg version="1.0" xmlns="http://www.w3.org/2000/svg"
 width="512.000000pt" height="512.000000pt" viewBox="0 0 512.000000 512.000000"
 preserveAspectRatio="xMidYMid meet">

<g transform="translate(0.000000,512.000000) scale(0.100000,-0.100000)"
fill="#000000" stroke="none">
<path d="M2394 5105 c-412 -75 -724 -366 -823 -769 -11 -43 -23 -82 -28 -85
-4 -4 -40 -33 -79 -64 -91 -73 -225 -211 -296 -307 -231 -311 -347 -672 -348
-1082 l0 -116 -42 -7 c-106 -17 -236 -112 -291 -213 -46 -84 -57 -150 -57
-337 0 -187 11 -253 57 -336 66 -122 204 -209 344 -217 l78 -4 38 -112 c44
-131 160 -368 233 -481 242 -369 583 -664 967 -835 119 -53 329 -126 389 -135
92 -15 547 160 603 231 31 39 28 89 -8 125 -42 42 -75 38 -213 -26 -65 -30
-171 -73 -237 -94 l-119 -39 -88 28 c-332 105 -601 267 -845 510 -398 397
-609 918 -609 1504 l0 82 98 23 c489 117 973 315 1417 582 115 69 139 80 149
68 8 -8 45 -51 84 -95 298 -342 816 -583 1256 -584 l79 0 -6 -177 c-10 -296
-74 -570 -196 -827 -60 -129 -64 -164 -22 -207 38 -38 87 -39 129 -4 34 29
122 217 171 366 l32 96 78 5 c140 8 278 95 344 217 46 83 57 149 57 336 0 187
-11 253 -57 337 -55 100 -185 196 -289 213 l-41 6 -6 187 c-8 282 -56 487
-168 722 -113 236 -327 500 -518 637 -36 26 -41 35 -61 118 -53 220 -194 434
-375 568 -226 168 -519 240 -781 192z m361 -210 c176 -40 361 -166 475 -323
26 -37 94 -162 87 -162 -1 0 -41 16 -87 36 -217 91 -407 128 -665 128 -261 0
-423 -30 -659 -125 -54 -21 -100 -39 -102 -39 -2 0 8 24 22 53 67 132 189 263
317 339 80 48 213 96 300 108 82 12 225 5 312 -15z m70 -539 c306 -56 571
-190 798 -406 203 -192 364 -467 432 -737 32 -127 45 -266 45 -482 l0 -214
-112 6 c-379 19 -754 190 -1030 469 -31 32 -71 76 -88 98 l-31 39 102 76 c146
108 169 152 110 217 -23 26 -37 33 -68 33 -34 0 -56 -13 -154 -85 -513 -378
-1071 -648 -1654 -800 -66 -17 -128 -34 -137 -36 -17 -5 -18 7 -18 163 0 371
41 574 166 828 144 294 399 548 703 700 129 65 338 125 501 145 98 12 334 4
435 -14z m-2002 -2133 c4 -151 13 -295 21 -348 9 -49 15 -93 16 -97 0 -13 -49
-9 -88 8 -52 21 -90 60 -118 119 -22 46 -24 62 -24 214 0 186 8 223 59 282 29
34 97 78 122 79 3 0 9 -116 12 -257z m3548 231 c39 -20 94 -88 107 -133 7 -22
12 -106 12 -202 0 -152 -2 -168 -24 -214 -37 -80 -112 -135 -182 -135 -23 0
-25 3 -20 24 19 76 36 305 36 484 l0 203 23 -7 c12 -3 34 -13 48 -20z"/>
<path d="M3223 3683 c-35 -7 -73 -59 -73 -100 0 -74 99 -122 156 -75 86 69 26
195 -83 175z"/>
<path d="M1469 2161 c-42 -42 -41 -97 4 -141 137 -137 360 -170 538 -79 135
68 179 157 112 224 -40 40 -85 34 -165 -21 -61 -42 -74 -47 -138 -52 -83 -6
-136 11 -202 63 -57 46 -107 48 -149 6z"/>
<path d="M2997 2165 c-67 -67 -23 -156 112 -224 178 -91 401 -58 539 79 44 44
45 99 3 141 -42 42 -92 40 -149 -6 -66 -52 -119 -69 -202 -63 -64 5 -77 10
-138 52 -80 55 -125 61 -165 21z"/>
<path d="M3310 1639 c-319 -83 -583 -350 -664 -670 -9 -36 -16 -81 -16 -100 0
-42 29 -107 62 -136 13 -13 154 -77 313 -143 l290 -120 230 -229 c148 -148
240 -232 258 -236 33 -9 82 10 102 39 8 11 15 38 15 60 0 39 -7 47 -205 246
l-205 205 113 113 112 112 230 -231 c260 -261 293 -289 342 -289 52 0 93 45
93 101 0 42 -1 44 -290 333 l-289 291 -111 290 c-118 307 -132 332 -205 366
-50 23 -81 23 -175 -2z m105 -206 c4 -10 47 -123 96 -252 l90 -235 -133 -133
c-73 -73 -138 -133 -145 -133 -15 0 -474 189 -486 200 -5 4 3 43 18 86 67 201
213 360 410 446 96 42 139 48 150 21z"/>
<path d="M4505 191 c-61 -25 -80 -108 -36 -155 79 -84 207 4 159 109 -20 44
-76 65 -123 46z"/>
</g>
</svg>
