<?xml version="1.0" standalone="no"?>
<!DOCTYPE svg PUBLIC "-//W3C//DTD SVG 20010904//EN"
 "http://www.w3.org/TR/2001/REC-SVG-20010904/DTD/svg10.dtd">
<svg version="1.0" xmlns="http://www.w3.org/2000/svg"
 width="512.000000pt" height="512.000000pt" viewBox="0 0 512.000000 512.000000"
 preserveAspectRatio="xMidYMid meet">

<g transform="translate(0.000000,512.000000) scale(0.100000,-0.100000)"
fill="#000000" stroke="none">
<path d="M775 5106 c-95 -30 -149 -78 -190 -168 l-26 -57 3 -303 3 -303 27
-51 c29 -55 81 -106 134 -132 l34 -16 0 -139 0 -140 -267 -356 c-146 -196
-275 -376 -286 -401 -48 -107 -47 -83 -47 -1186 0 -1137 -3 -1080 58 -1199 33
-66 143 -174 212 -207 120 -59 99 -58 1005 -58 l830 -1 34 -49 c45 -67 164
-178 239 -224 205 -124 466 -148 690 -63 56 21 305 159 707 391 341 197 643
373 670 391 118 76 211 184 276 320 61 126 74 189 74 350 0 119 -4 151 -23
215 -71 225 -215 397 -417 495 -132 64 -196 79 -350 79 -204 1 -273 -24 -630
-232 l-170 -99 -5 476 c-5 464 -6 478 -28 541 -30 85 -52 117 -334 492 l-238
318 0 145 0 145 25 10 c44 17 122 98 146 153 23 51 24 58 24 347 l0 295 -26
55 c-31 66 -82 118 -146 151 l-48 24 -960 2 c-755 1 -969 -1 -1000 -11z m1952
-219 l28 -27 3 -253 c2 -225 1 -256 -15 -287 -10 -19 -29 -40 -43 -47 -34 -17
-1850 -19 -1883 -2 -56 29 -57 32 -57 319 0 285 1 289 55 318 14 8 285 11 952
9 l933 -2 27 -28z m-167 -927 l0 -100 -461 0 c-479 0 -486 -1 -521 -44 -36
-43 -16 -117 39 -145 15 -8 169 -11 506 -11 l485 0 248 -331 c246 -329 294
-401 294 -446 l0 -23 -1396 0 -1396 0 7 33 c12 55 44 102 309 456 142 189 264
358 272 377 10 24 14 77 14 184 l0 150 800 0 800 0 0 -100z m600 -1708 l0
-407 -302 -174 c-167 -96 -328 -191 -358 -212 -73 -48 -178 -155 -215 -218
l-30 -51 -947 0 -948 0 0 735 0 735 1400 0 1400 0 0 -408z m1144 -172 c205
-52 363 -197 427 -392 20 -61 24 -93 24 -193 -1 -136 -19 -204 -83 -309 -67
-111 -128 -159 -418 -326 -148 -85 -273 -156 -279 -158 -11 -3 -611 1025 -604
1033 12 11 522 301 559 317 112 49 251 60 374 28z m-811 -966 c164 -284 295
-520 290 -524 -11 -10 -516 -301 -571 -329 -63 -32 -185 -61 -256 -61 -283 1
-533 202 -591 477 -43 201 16 397 164 543 67 66 109 94 366 242 160 92 292
168 295 168 3 0 139 -232 303 -516z m-1327 -161 c-15 -95 -18 -177 -7 -253 7
-45 15 -88 18 -96 5 -12 -105 -14 -793 -12 -788 3 -800 3 -845 24 -68 32 -119
82 -151 149 -24 51 -28 73 -28 143 l0 82 906 0 907 0 -7 -37z"/>
<path d="M1215 3849 c-80 -46 -68 -163 19 -185 89 -22 159 98 94 163 -28 27
-84 39 -113 22z"/>
<path d="M1715 2379 c-51 -30 -55 -43 -55 -221 l0 -168 -161 0 c-166 0 -190
-5 -221 -44 -36 -43 -16 -117 39 -145 13 -7 84 -11 182 -11 l161 0 0 -169 c0
-164 1 -169 24 -194 45 -49 111 -46 150 7 19 25 21 44 24 192 l3 164 154 0
c85 0 165 4 179 10 61 23 79 112 32 159 -26 26 -28 26 -195 29 l-169 3 -4 169
c-3 166 -3 170 -29 195 -29 29 -85 41 -114 24z"/>
</g>
</svg>
