<?xml version="1.0" encoding="iso-8859-1"?>
<!-- Generator: Adobe Illustrator 21.0.0, SVG Export Plug-In . SVG Version: 6.00 Build 0)  -->
<svg xmlns="http://www.w3.org/2000/svg" xmlns:xlink="http://www.w3.org/1999/xlink" version="1.1" id="Capa_1" x="0px" y="0px" viewBox="0 0 512 512" style="enable-background:new 0 0 512 512;" xml:space="preserve" width="512" height="512">
<g>
	<path d="M461.867,157.653C454.818,69.551,380.3,0,289.711,0h-67.422C131.7,0,57.182,69.551,50.133,157.653   C27.742,162.851,11,182.951,11,206.9v82.862c0,23.962,16.759,44.069,39.167,49.255c6.682,79.327,70.877,142.69,150.984,148.793   C206.389,501.919,219.985,512,235.893,512h35.668c20.427,0,37.046-16.619,37.046-37.046v-3.32   c0-20.427-16.619-37.046-37.046-37.046h-35.668c-15.512,0-28.819,9.588-34.329,23.144C137.726,451.97,86.658,401.777,80.26,338.724   c10.113-2.617,18.998-8.302,25.625-15.986c27.589,54.558,84.512,92.098,150.115,92.098s122.526-37.54,150.115-92.098   c9.28,10.761,22.998,17.593,38.289,17.593h6.028c27.883,0,50.568-22.685,50.568-50.567V206.9   C501,182.951,484.258,162.851,461.867,157.653z M228.847,471.634c0-3.885,3.161-7.046,7.046-7.046h35.668   c3.885,0,7.046,3.161,7.046,7.046v3.32c0,3.885-3.161,7.046-7.046,7.046h-35.668c-3.885,0-7.046-3.161-7.046-7.046V471.634z    M222.289,30h67.422c74.125,0,135.222,56.262,142.061,127.93c-10.127,2.614-19.023,8.303-25.658,15.996   C378.526,119.368,321.603,81.828,256,81.828s-122.526,37.54-150.115,92.098c-6.634-7.693-15.531-13.382-25.658-15.996   C87.068,86.262,148.165,30,222.289,30z M88.164,289.763c0,11.341-9.227,20.567-20.568,20.567h-6.028   C50.227,310.33,41,301.104,41,289.763V206.9c0-11.341,9.227-20.567,20.568-20.567h6.028c11.341,0,20.568,9.227,20.568,20.567   V289.763z M256,384.835c-76.003,0-137.836-61.235-137.836-136.504c0-75.268,61.833-136.503,137.836-136.503   s137.836,61.235,137.836,136.503C393.836,323.6,332.003,384.835,256,384.835z M471,289.763c0,11.341-9.227,20.567-20.568,20.567   h-6.028c-11.341,0-20.568-9.227-20.568-20.567V206.9c0-11.341,9.227-20.567,20.568-20.567h6.028   c11.341,0,20.568,9.227,20.568,20.567V289.763z"/>
	<path d="M204.251,231.417c8.284,0,15-6.716,15-15V201.96c0-8.284-6.716-15-15-15s-15,6.716-15,15v14.457   C189.251,224.701,195.967,231.417,204.251,231.417z"/>
	<path d="M307.749,186.96c-8.284,0-15,6.716-15,15v14.457c0,8.284,6.716,15,15,15s15-6.716,15-15V201.96   C322.749,193.676,316.033,186.96,307.749,186.96z"/>
	<path d="M307.749,260.006c-8.284,0-15,6.716-15,15c0,8.52-7.051,15.45-15.718,15.45h-42.062c-8.667,0-15.718-6.931-15.718-15.45   c0-8.284-6.716-15-15-15s-15,6.716-15,15c0,25.062,20.509,45.45,45.718,45.45h42.062c25.209,0,45.718-20.389,45.718-45.45   C322.749,266.722,316.033,260.006,307.749,260.006z"/>
</g>















</svg>
