<?xml version="1.0" standalone="no"?>
<!DOCTYPE svg PUBLIC "-//W3C//DTD SVG 20010904//EN"
 "http://www.w3.org/TR/2001/REC-SVG-20010904/DTD/svg10.dtd">
<svg version="1.0" xmlns="http://www.w3.org/2000/svg"
 width="512.000000pt" height="512.000000pt" viewBox="0 0 512.000000 512.000000"
 preserveAspectRatio="xMidYMid meet">

<g transform="translate(0.000000,512.000000) scale(0.100000,-0.100000)"
fill="#000000" stroke="none">
<path d="M1766 4790 c-415 -66 -754 -363 -870 -764 -93 -320 -28 -666 177
-938 139 -185 342 -320 577 -386 86 -24 111 -27 270 -27 151 0 186 3 260 23
443 120 750 478 800 933 56 511 -290 1005 -798 1135 -109 28 -313 40 -416 24z
m339 -333 c265 -75 468 -277 536 -534 30 -111 30 -270 0 -378 -61 -219 -197
-383 -396 -480 -111 -53 -205 -75 -328 -75 -253 0 -484 126 -622 339 -184 284
-154 657 72 900 125 136 272 216 448 245 53 8 238 -3 290 -17z"/>
<path d="M4057 3776 c-90 -33 -131 -122 -96 -213 5 -15 146 -164 312 -330
l302 -303 -734 0 c-656 0 -737 -2 -767 -16 -50 -24 -77 -68 -82 -133 -5 -70
22 -115 88 -148 l44 -23 726 0 725 0 -302 -302 c-165 -167 -306 -313 -312
-325 -6 -12 -11 -42 -11 -66 0 -113 126 -191 226 -139 50 26 919 897 934 935
15 41 12 98 -8 132 -9 17 -220 231 -468 478 -499 495 -486 485 -577 453z"/>
<path d="M837 2224 c-400 -73 -721 -381 -813 -779 -17 -72 -19 -128 -19 -552
0 -461 0 -472 21 -499 11 -15 33 -37 48 -48 l27 -21 1819 0 1819 0 27 21 c15
11 37 33 48 48 20 27 21 41 24 459 3 464 -1 533 -45 672 -107 340 -375 593
-728 688 -79 21 -90 21 -1115 23 -857 2 -1048 0 -1113 -12z m2198 -336 c112
-38 197 -91 279 -174 83 -82 136 -168 173 -279 27 -80 27 -80 31 -437 l3 -358
-1601 0 -1601 0 3 358 c4 357 4 357 31 437 81 244 271 414 522 470 48 11 258
13 1070 12 l1010 -2 80 -27z"/>
</g>
</svg>
